<svg width="102" height="17" viewBox="0 0 102 17" fill="none" xmlns="http://www.w3.org/2000/svg">
<path d="M8.59348 13.7522L4.42767 16.2617C4.24364 16.3788 4.05125 16.429 3.85048 16.4123C3.64972 16.3955 3.47406 16.3286 3.32348 16.2115C3.17291 16.0944 3.0558 15.9482 2.97215 15.7728C2.8885 15.5975 2.87177 15.4008 2.92196 15.1826L4.02615 10.4396L0.337155 7.25251C0.169854 7.10194 0.0654575 6.93029 0.0239667 6.73756C-0.017524 6.54483 -0.00514378 6.35678 0.0611076 6.17342C0.127359 5.99006 0.22774 5.83949 0.36225 5.72171C0.49676 5.60393 0.680792 5.52864 0.914344 5.49585L5.78281 5.06923L7.66495 0.602285C7.74861 0.401523 7.87843 0.250952 8.05443 0.150571C8.23043 0.0501903 8.41012 0 8.59348 0C8.77684 0 8.95652 0.0501903 9.13252 0.150571C9.30852 0.250952 9.43835 0.401523 9.522 0.602285L11.4041 5.06923L16.2726 5.49585C16.5068 5.52931 16.6909 5.6046 16.8247 5.72171C16.9585 5.83882 17.0589 5.98939 17.1258 6.17342C17.1928 6.35745 17.2055 6.54583 17.164 6.73856C17.1225 6.9313 17.0178 7.10261 16.8498 7.25251L13.1608 10.4396L14.265 15.1826C14.3152 15.4001 14.2985 15.5968 14.2148 15.7728C14.1312 15.9488 14.014 16.0951 13.8635 16.2115C13.7129 16.3279 13.5372 16.3949 13.3365 16.4123C13.1357 16.4297 12.9433 16.3795 12.7593 16.2617L8.59348 13.7522Z" fill="#FFAB00"/>
<path d="M29.7965 13.7522L25.6307 16.2617C25.4466 16.3788 25.2542 16.429 25.0535 16.4123C24.8527 16.3955 24.6771 16.3286 24.5265 16.2115C24.3759 16.0944 24.2588 15.9482 24.1751 15.7728C24.0915 15.5975 24.0748 15.4008 24.125 15.1826L25.2291 10.4396L21.5402 7.25251C21.3729 7.10194 21.2685 6.93029 21.227 6.73756C21.1855 6.54483 21.1979 6.35678 21.2641 6.17342C21.3304 5.99006 21.4307 5.83949 21.5652 5.72171C21.6998 5.60393 21.8838 5.52864 22.1173 5.49585L26.9858 5.06923L28.868 0.602285C28.9516 0.401523 29.0814 0.250952 29.2574 0.150571C29.4334 0.0501903 29.6131 0 29.7965 0C29.9798 0 30.1595 0.0501903 30.3355 0.150571C30.5115 0.250952 30.6413 0.401523 30.725 0.602285L32.6071 5.06923L37.4756 5.49585C37.7098 5.52931 37.8939 5.6046 38.0277 5.72171C38.1615 5.83882 38.2619 5.98939 38.3288 6.17342C38.3958 6.35745 38.4085 6.54583 38.367 6.73856C38.3255 6.9313 38.2208 7.10261 38.0528 7.25251L34.3638 10.4396L35.468 15.1826C35.5182 15.4001 35.5015 15.5968 35.4178 15.7728C35.3342 15.9488 35.217 16.0951 35.0665 16.2115C34.9159 16.3279 34.7402 16.3949 34.5395 16.4123C34.3387 16.4297 34.1463 16.3795 33.9623 16.2617L29.7965 13.7522Z" fill="#FFAB00"/>
<path d="M50.9996 13.7522L46.8338 16.2617C46.6498 16.3788 46.4574 16.429 46.2566 16.4123C46.0558 16.3955 45.8802 16.3286 45.7296 16.2115C45.579 16.0944 45.4619 15.9482 45.3783 15.7728C45.2946 15.5975 45.2779 15.4008 45.3281 15.1826L46.4323 10.4396L42.7433 7.25251C42.576 7.10194 42.4716 6.93029 42.4301 6.73756C42.3886 6.54483 42.401 6.35678 42.4672 6.17342C42.5335 5.99006 42.6339 5.83949 42.7684 5.72171C42.9029 5.60393 43.0869 5.52864 43.3205 5.49585L48.1889 5.06923L50.0711 0.602285C50.1547 0.401523 50.2845 0.250952 50.4606 0.150571C50.6366 0.0501903 50.8162 0 50.9996 0C51.183 0 51.3626 0.0501903 51.5386 0.150571C51.7146 0.250952 51.8445 0.401523 51.9281 0.602285L53.8103 5.06923L58.6787 5.49585C58.9129 5.52931 59.097 5.6046 59.2308 5.72171C59.3647 5.83882 59.465 5.98939 59.532 6.17342C59.5989 6.35745 59.6116 6.54583 59.5701 6.73856C59.5286 6.9313 59.4239 7.10261 59.2559 7.25251L55.5669 10.4396L56.6711 15.1826C56.7213 15.4001 56.7046 15.5968 56.6209 15.7728C56.5373 15.9488 56.4202 16.0951 56.2696 16.2115C56.119 16.3279 55.9434 16.3949 55.7426 16.4123C55.5418 16.4297 55.3494 16.3795 55.1654 16.2617L50.9996 13.7522Z" fill="#FFAB00"/>
<path d="M72.2026 13.7522L68.0368 16.2617C67.8528 16.3788 67.6604 16.429 67.4596 16.4123C67.2588 16.3955 67.0832 16.3286 66.9326 16.2115C66.782 16.0944 66.6649 15.9482 66.5813 15.7728C66.4976 15.5975 66.4809 15.4008 66.5311 15.1826L67.6353 10.4396L63.9463 7.25251C63.779 7.10194 63.6746 6.93029 63.6331 6.73756C63.5916 6.54483 63.604 6.35678 63.6702 6.17342C63.7365 5.99006 63.8369 5.83949 63.9714 5.72171C64.1059 5.60393 64.2899 5.52864 64.5235 5.49585L69.3919 5.06923L71.2741 0.602285C71.3577 0.401523 71.4875 0.250952 71.6635 0.150571C71.8395 0.0501903 72.0192 0 72.2026 0C72.386 0 72.5656 0.0501903 72.7416 0.150571C72.9176 0.250952 73.0475 0.401523 73.1311 0.602285L75.0133 5.06923L79.8817 5.49585C80.1159 5.52931 80.3 5.6046 80.4338 5.72171C80.5677 5.83882 80.668 5.98939 80.735 6.17342C80.8019 6.35745 80.8146 6.54583 80.7731 6.73856C80.7316 6.9313 80.6269 7.10261 80.4589 7.25251L76.7699 10.4396L77.8741 15.1826C77.9243 15.4001 77.9076 15.5968 77.8239 15.7728C77.7403 15.9488 77.6232 16.0951 77.4726 16.2115C77.322 16.3279 77.1463 16.3949 76.9456 16.4123C76.7448 16.4297 76.5524 16.3795 76.3684 16.2617L72.2026 13.7522Z" fill="#FFAB00"/>
<path d="M93.4057 13.7522L89.2399 16.2617C89.0559 16.3788 88.8635 16.429 88.6627 16.4123C88.462 16.3955 88.2863 16.3286 88.1357 16.2115C87.9851 16.0944 87.868 15.9482 87.7844 15.7728C87.7007 15.5975 87.684 15.4008 87.7342 15.1826L88.8384 10.4396L85.1494 7.25251C84.9821 7.10194 84.8777 6.93029 84.8362 6.73756C84.7947 6.54483 84.8071 6.35678 84.8733 6.17342C84.9396 5.99006 85.04 5.83949 85.1745 5.72171C85.309 5.60393 85.493 5.52864 85.7266 5.49585L90.595 5.06923L92.4772 0.602285C92.5608 0.401523 92.6907 0.250952 92.8667 0.150571C93.0427 0.0501903 93.2224 0 93.4057 0C93.5891 0 93.7688 0.0501903 93.9448 0.150571C94.1208 0.250952 94.2506 0.401523 94.3342 0.602285L96.2164 5.06923L101.085 5.49585C101.319 5.52931 101.503 5.6046 101.637 5.72171C101.771 5.83882 101.871 5.98939 101.938 6.17342C102.005 6.35745 102.018 6.54583 101.976 6.73856C101.935 6.9313 101.83 7.10261 101.662 7.25251L97.973 10.4396L99.0772 15.1826C99.1274 15.4001 99.1107 15.5968 99.027 15.7728C98.9434 15.9488 98.8263 16.0951 98.6757 16.2115C98.5251 16.3279 98.3495 16.3949 98.1487 16.4123C97.9479 16.4297 97.7555 16.3795 97.5715 16.2617L93.4057 13.7522Z" fill="#FFAB00"/>
</svg>
