<svg width="35" height="129" viewBox="0 0 35 129" fill="none" xmlns="http://www.w3.org/2000/svg">
<path d="M13.0626 75.9598C14.2664 77.7773 16.8788 77.6853 18.6999 77.0129C21.7187 75.5202 23.2039 72.2786 24.998 69.6355C20.2086 65.9902 13.9989 70.9637 13.0626 75.9598ZM3.02775 42.6889C8.71017 45.114 13.3851 39.044 16.4272 35.1012C10.6921 33.7374 4.24015 36.5193 3.02775 42.6889ZM16.6736 4.19559e-06C21.4511 2.7827 22.7225 8.53918 23.7357 13.5623C24.685 19.8212 24.4083 26.3285 22.0357 32.2607C26.6228 35.6473 31.1703 39.9066 32.4115 45.729C34.3946 53.2493 33.481 61.267 30.744 68.4843C35.8883 75.454 35.1486 84.9448 32.5712 92.7694C29.9594 102.781 23.9618 111.51 16.9947 119.008C22.1766 117.566 27.0453 115.236 32.2099 113.811C32.7807 114.077 33.9134 114.639 34.4874 114.924C30.7127 117.869 25.9067 118.862 21.6441 120.872C15.2714 123.296 9.40555 126.915 2.91144 129C0.666245 128.007 2.347 125.813 2.78111 124.206C6.04109 116.953 8.42378 109.344 11.7517 102.138C12.4077 100.457 14.1572 100.091 15.7541 100.132C15.0275 106.24 12.9083 112.035 10.8333 117.79C16.2561 112.097 21.8415 106.218 25.0643 98.9386C28.0426 90.9621 30.6056 82.2129 28.1967 73.7233C25.5429 77.0533 22.4705 81.062 17.7943 81.1864C14.3111 81.5443 9.45246 80.0049 9.46483 75.8226C9.8207 67.9763 19.4975 60.4514 26.9026 65.1726C28.9212 58.867 29.4906 51.938 27.5702 45.5415C26.3382 41.6519 23.1413 38.8711 20.1461 36.3342C17.0763 40.9109 13.0048 45.4774 7.42417 46.7997C4.57021 47.296 0.505521 46.3786 0.0522934 43.0147C-0.481329 37.9422 3.13443 32.9857 7.89739 31.3812C11.267 29.9756 14.9737 30.428 18.4883 30.9489C22.1428 21.6321 20.893 10.9453 16.702 2.03101C16.6864 1.52127 16.6782 0.505176 16.6736 4.19559e-06Z" fill="#B2C0FE"/>
</svg>
