<svg width="138" height="35" viewBox="0 0 138 35" fill="none" xmlns="http://www.w3.org/2000/svg">
<path d="M122.596 32.7072L138 17.1643L122.596 1.62333C120.43 -0.541109 116.919 -0.541109 114.753 1.62333C112.586 3.78877 112.586 7.29972 114.753 9.46617L122.314 17.1643L114.753 24.8634C112.586 27.0299 112.586 30.5398 114.753 32.7072C116.918 34.8727 120.429 34.8727 122.596 32.7072Z" fill="#E2E2FF"/>
<path d="M99.9686 32.7072L115.374 17.1643L99.9686 1.62333C97.8041 -0.541109 94.2912 -0.541109 92.1267 1.62333C89.9603 3.78877 89.9603 7.29972 92.1267 9.46617L99.6882 17.1643L92.1267 24.8634C89.9603 27.0299 89.9603 30.5398 92.1267 32.7072C94.2912 34.8727 97.8041 34.8727 99.9686 32.7072Z" fill="#E2E2FF"/>
<path d="M77.3434 32.7072L92.7467 17.1643L77.3434 1.62333C75.177 -0.541109 71.667 -0.541109 69.4996 1.62333C67.3352 3.78877 67.3352 7.29972 69.4996 9.46617L77.0621 17.1643L69.4996 24.8634C67.3352 27.0299 67.3352 30.5398 69.4996 32.7072C71.667 34.8727 75.177 34.8727 77.3434 32.7072Z" fill="#E2E2FF"/>
<path d="M54.7184 32.7072L70.1236 17.1643L54.7184 1.62333C52.5519 -0.541109 49.042 -0.541109 46.8745 1.62333C44.7101 3.78877 44.7101 7.29972 46.8745 9.46617L54.437 17.1643L46.8745 24.8634C44.7101 27.0299 44.7101 30.5398 46.8745 32.7072C49.04 34.8727 52.5509 34.8727 54.7184 32.7072Z" fill="#E2E2FF"/>
<path d="M32.0922 32.7072L47.4975 17.1643L32.0922 1.62333C29.9258 -0.541109 26.4159 -0.541109 24.2494 1.62333C22.084 3.78877 22.084 7.29972 24.2494 9.46617L31.8119 17.1643L24.2494 24.8634C22.084 27.0299 22.084 30.5398 24.2494 32.7072C26.4149 34.8727 29.9258 34.8727 32.0922 32.7072Z" fill="#E2E2FF"/>
<path d="M9.46616 32.7072L24.8724 17.1643L9.46616 1.62333C7.29971 -0.541109 3.78977 -0.541109 1.62333 1.62333C-0.541109 3.78877 -0.541109 7.29972 1.62333 9.46617L9.1858 17.1643L1.62333 24.8634C-0.541109 27.0299 -0.541109 30.5398 1.62333 32.7072C3.78977 34.8727 7.29971 34.8727 9.46616 32.7072Z" fill="#E2E2FF"/>
</svg>
